<?xml version="1.0" encoding="UTF-8"?>
<svg id="Layer_1" xmlns="http://www.w3.org/2000/svg" xmlns:xlink="http://www.w3.org/1999/xlink" version="1.1" viewBox="0 0 200 200">
  <!-- Generator: Adobe Illustrator 29.4.0, SVG Export Plug-In . SVG Version: 2.1.0 Build 152)  -->
  <defs>
    <style>
      .st0 {
        mask: url(#mask);
      }

      .st1 {
        display: none;
        stroke: #ff7425;
        stroke-miterlimit: 8;
        stroke-width: 8px;
      }

      .st1, .st2, .st3 {
        fill: none;
      }

      .st2 {
        stroke: #db5800;
        stroke-width: .5px;
      }

      .st2, .st3 {
        stroke-miterlimit: 10;
      }

      .st4 {
        fill: #010201;
      }

      .st5 {
        fill: #fff;
      }

      .st6 {
        font-family: Arial-Black, 'Arial Black';
        font-size: 42px;
        font-weight: 800;
        isolation: isolate;
      }

      .st7 {
        fill: #f9d500;
      }

      .st3 {
        stroke: #fff;
        stroke-width: 2px;
      }
    </style>
    <mask id="mask" x="-2.85" y=".91" width="222.16" height="227.85" maskUnits="userSpaceOnUse">
      <g id="ldio-i2y0dff1qfj-mask">
        <rect class="st5" x="10" y="10" width="180" height="180"/>
        <text class="st6" transform="translate(25.33 100.42)"><tspan x="0" y="0">ORIXY</tspan></text>
      </g>
    </mask>
  </defs>
  <g class="st0">
    <path class="st1" d="M5.4,21.6c10.4-6,12.6-11.4,23-17.2C17,12.4,14.8,26,7.4,37.8,20,25.8,33.2,13.6,48,4.4c-13,10.4-19.4,24.2-30,37,14.6-9.6,26.2-24.6,40.8-34.4C36.4,22.2,21,43.4,4.6,65,26.8,42.4,47.6,22.8,74.2,5.4,48.2,24.6,24.4,53.8,4,79,32.2,57,62,27.4,90.4,5.4,62.8,28.8,30.2,67,5.4,93.4,34.4,73.2,77,27.8,103,4,74.2,30.8,35.4,78.2,6.6,105,42,76.2,80.6,36.6,116,8,78.6,41.8,42.6,80.6,5.4,114.4,49.8,80,91.4,40.2,135.8,5.8,89.6,45.4,43.6,83.8,5.4,131.4,49.4,89.2,98.6,46.4,147.2,9.2c-35.6,30.4-70.4,74.6-105.8,105-10,8.6-30.8,25.2-35.2,37.6C51.2,111.2,115.2,45.2,162.4,7,109.6,51.4,52.8,118,6.2,168.6,62.2,119.2,115.2,49.4,176.6,7,119.6,52.8,52.6,128,6.2,184.8,58.8,139,135.2,53.6,187.8,8,131,63.4,57,150.8,4.6,210.4,67.6,144,133.8,60.8,209.8,9.8,147.2,69.4,77.8,145.8,19.8,211c64.2-58.4,121.8-125,191-177.4-59.6,51.4-126.6,118.6-175.8,180,51.6-44,118-113,169.8-157-50,42.8-112,107.6-155.4,157,50-41.4,107.6-98.8,157.6-140.2-50.4,43.2-98.6,94.8-143.4,144,49.4-38.8,93.8-88.4,143.4-127-44.2,35.8-83.8,82.8-119,127.2,40-30.4,76.8-73,116.8-103.4-29.2,22.2-69.6,74-94.4,101.2,27.2-18.2,68.2-60.4,93.8-80.8-24.2,17-54.6,56.8-73.4,79.6,25.6-14.8,55.4-47.8,77.8-66.8-24,18.6-41.6,43.6-63.2,65.2,22-13.2,43.2-31.6,61.8-49.2-16,12.6-32.4,33.2-43.6,50.4,17.6-11.2,35.6-20.6,42.8-31.8-2.6,8.2-9.6,18.4-20.2,30.4,6.2-.8,15.4-1.2,21.6-2">
      <animate accumulate="none" additive="replace" attributeName="stroke-dasharray" calcMode="spline" dur="1s" fill="remove" keySplines="0.7 0 0.3 1;0.7 0 0.3 1" keyTimes="0;0.5;1" repeatCount="indefinite" restart="always" values="0 0 0 3390;0 0 3390 0;0 3390 3390 0"/>
    </path>
  </g>
  <rect class="st5" x="71.39" y="81.15" width="5.84" height="23.72" rx="2.92" ry="2.92"/>
  <rect class="st5" x="78.07" y="87.81" width="6.49" height="13.25"/>
  <rect class="st5" x="88.85" y="87.81" width="6.69" height="14.22"/>
  <rect class="st5" x="88.85" y="102.65" width="6.69" height="23.72"/>
  <rect class="st5" x="80.55" y="72" width="5.84" height="24.15" transform="translate(167.54 .61) rotate(90)"/>
  <rect class="st5" x="83.13" y="83.18" width="5.57" height="14.83" transform="translate(176.5 4.68) rotate(90)"/>
  <rect class="st5" x="80.18" y="94.35" width="5.57" height="9.8" transform="translate(182.21 16.28) rotate(90)"/>
  <rect class="st5" x="103.53" y="81.15" width="6.49" height="13.25"/>
  <rect class="st5" x="115.42" y="81.15" width="6.23" height="13.25"/>
  <rect class="st5" x="108.59" y="76.53" width="5.57" height="14.83" transform="translate(195.31 -27.43) rotate(90)"/>
  <rect class="st5" x="108.59" y="84.2" width="5.57" height="14.83" transform="translate(202.99 -19.75) rotate(90)"/>
  <rect class="st5" x="111.13" y="90.23" width="5.57" height="15.48" transform="translate(211.88 -15.95) rotate(90)"/>
  <rect class="st5" x="111.13" y="99.17" width="5.57" height="15.48" transform="translate(220.83 -7) rotate(90)"/>
  <rect class="st5" x="71.39" y="109.22" width="6.49" height="13.25"/>
  <rect class="st5" x="81.21" y="109.18" width="6.69" height="13.25"/>
  <rect class="st5" x="76.45" y="104.6" width="5.57" height="14.83" transform="translate(191.24 32.78) rotate(90)"/>
  <rect class="st5" x="80.33" y="93.71" width="5.84" height="23.72" transform="translate(188.82 22.32) rotate(90)"/>
  <rect class="st5" x="80.55" y="114.29" width="5.84" height="24.15" transform="translate(209.83 42.9) rotate(90)"/>
  <rect class="st5" x="96.54" y="81.15" width="5.84" height="48.13"/>
  <rect class="st5" x="100.13" y="113.01" width="1.78" height="11.19" transform="translate(58.72 -31.34) rotate(24.67)"/>
  <rect class="st5" x="100.24" y="121.73" width="1.86" height="7.94" transform="translate(259.93 154.59) rotate(139.14)"/>
  <rect class="st5" x="103.53" y="95.18" width="6.49" height="34.1"/>
  <rect class="st5" x="104.19" y="114.79" width="6.49" height="14.49"/>
  <rect class="st5" x="114.96" y="114.94" width="6.69" height="14.34"/>
  <rect class="st5" x="109.1" y="110.32" width="5.57" height="14.83" transform="translate(229.62 5.84) rotate(90)"/>
  <rect class="st5" x="107.06" y="122.28" width="4.42" height="9.59" transform="translate(236.34 17.81) rotate(90)"/>
  <g>
    <path class="st4" d="M97.13,99.1c2.14-.28,4.38.87,5.41,2.77,1.21,2.13.71,5.05-1.11,6.67-.93.85-2.15,1.36-3.41,1.41-1.22.05-2.48-.28-3.47-1.01-.91-.67-1.63-1.62-1.99-2.7-.38-1.2-.37-2.54.09-3.72.69-1.86,2.5-3.22,4.47-3.42ZM98.09,99.83c.04.55.02,1.09.02,1.64.58.05,1.11.31,1.57.65.37-.41.79-.77,1.15-1.2-.77-.63-1.74-1.06-2.74-1.09ZM94.69,100.9c.34.43.76.8,1.15,1.2.46-.32.98-.59,1.55-.64,0-.55,0-1.09,0-1.64-.99.05-1.92.48-2.69,1.08ZM93.39,102.65c-.18.47-.31.97-.34,1.48.54,0,1.08-.01,1.61,0,.08-.56.31-1.09.66-1.53-.41-.37-.75-.8-1.18-1.16-.29.38-.58.77-.75,1.22ZM100.18,102.62c.34.43.57.95.64,1.5.55,0,1.1,0,1.66,0-.1-.99-.48-1.96-1.13-2.72-.39.4-.77.81-1.17,1.21ZM96.72,104.02c-.1.43.15.88.52,1.11.01.28,0,.56.01.84.02.24.24.47.49.44.22,0,.45-.16.5-.37.02-.3,0-.61,0-.91.24-.17.48-.39.53-.69.15-.6-.33-1.28-.97-1.29-.52-.06-1.02.36-1.09.88ZM93.04,104.88c.08.99.47,1.96,1.11,2.72.41-.39.79-.8,1.16-1.22-.31-.44-.57-.94-.63-1.48-.55-.02-1.1,0-1.65-.02ZM100.82,104.88c-.08.55-.31,1.07-.64,1.52.41.37.75.81,1.17,1.17.66-.74,1.03-1.7,1.11-2.69-.54,0-1.09,0-1.63,0ZM98.11,107.54c0,.55,0,1.09,0,1.64.98-.08,1.96-.44,2.68-1.12-.37-.39-.76-.76-1.12-1.15-.46.33-1,.57-1.56.62ZM94.69,108.1c.74.65,1.7,1.02,2.68,1.09,0-.55,0-1.11,0-1.66-.56-.04-1.08-.31-1.55-.6-.36.4-.79.74-1.12,1.17Z"/>
    <path class="st3" d="M97.13,99.1c2.14-.28,4.38.87,5.41,2.77,1.21,2.13.71,5.05-1.11,6.67-.93.85-2.15,1.36-3.41,1.41-1.22.05-2.48-.28-3.47-1.01-.91-.67-1.63-1.62-1.99-2.7-.38-1.2-.37-2.54.09-3.72.69-1.86,2.5-3.22,4.47-3.42ZM98.09,99.83c.04.55.02,1.09.02,1.64.58.05,1.11.31,1.57.65.37-.41.79-.77,1.15-1.2-.77-.63-1.74-1.06-2.74-1.09ZM94.69,100.9c.34.43.76.8,1.15,1.2.46-.32.98-.59,1.55-.64,0-.55,0-1.09,0-1.64-.99.05-1.92.48-2.69,1.08ZM93.39,102.65c-.18.47-.31.97-.34,1.48.54,0,1.08-.01,1.61,0,.08-.56.31-1.09.66-1.53-.41-.37-.75-.8-1.18-1.16-.29.38-.58.77-.75,1.22ZM100.18,102.62c.34.43.57.95.64,1.5.55,0,1.1,0,1.66,0-.1-.99-.48-1.96-1.13-2.72-.39.4-.77.81-1.17,1.21ZM96.72,104.02c-.1.43.15.88.52,1.11.01.28,0,.56.01.84.02.24.24.47.49.44.22,0,.45-.16.5-.37.02-.3,0-.61,0-.91.24-.17.48-.39.53-.69.15-.6-.33-1.28-.97-1.29-.52-.06-1.02.36-1.09.88ZM93.04,104.88c.08.99.47,1.96,1.11,2.72.41-.39.79-.8,1.16-1.22-.31-.44-.57-.94-.63-1.48-.55-.02-1.1,0-1.65-.02ZM100.82,104.88c-.08.55-.31,1.07-.64,1.52.41.37.75.81,1.17,1.17.66-.74,1.03-1.7,1.11-2.69-.54,0-1.09,0-1.63,0ZM98.11,107.54c0,.55,0,1.09,0,1.64.98-.08,1.96-.44,2.68-1.12-.37-.39-.76-.76-1.12-1.15-.46.33-1,.57-1.56.62ZM94.69,108.1c.74.65,1.7,1.02,2.68,1.09,0-.55,0-1.11,0-1.66-.56-.04-1.08-.31-1.55-.6-.36.4-.79.74-1.12,1.17Z"/>
    <path class="st7" d="M97.13,99.1c2.14-.28,4.38.87,5.41,2.77,1.21,2.13.71,5.05-1.11,6.67-.93.85-2.15,1.36-3.41,1.41-1.22.05-2.48-.28-3.47-1.01-.91-.67-1.63-1.62-1.99-2.7-.38-1.2-.37-2.54.09-3.72.69-1.86,2.5-3.22,4.47-3.42ZM98.09,99.83c.04.55.02,1.09.02,1.64.58.05,1.11.31,1.57.65.37-.41.79-.77,1.15-1.2-.77-.63-1.74-1.06-2.74-1.09ZM94.69,100.9c.34.43.76.8,1.15,1.2.46-.32.98-.59,1.55-.64,0-.55,0-1.09,0-1.64-.99.05-1.92.48-2.69,1.08ZM93.39,102.65c-.18.47-.31.97-.34,1.48.54,0,1.08-.01,1.61,0,.08-.56.31-1.09.66-1.53-.41-.37-.75-.8-1.18-1.16-.29.38-.58.77-.75,1.22ZM100.18,102.62c.34.43.57.95.64,1.5.55,0,1.1,0,1.66,0-.1-.99-.48-1.96-1.13-2.72-.39.4-.77.81-1.17,1.21ZM96.72,104.02c-.1.43.15.88.52,1.11.01.28,0,.56.01.84.02.24.24.47.49.44.22,0,.45-.16.5-.37.02-.3,0-.61,0-.91.24-.17.48-.39.53-.69.15-.6-.33-1.28-.97-1.29-.52-.06-1.02.36-1.09.88ZM93.04,104.88c.08.99.47,1.96,1.11,2.72.41-.39.79-.8,1.16-1.22-.31-.44-.57-.94-.63-1.48-.55-.02-1.1,0-1.65-.02ZM100.82,104.88c-.08.55-.31,1.07-.64,1.52.41.37.75.81,1.17,1.17.66-.74,1.03-1.7,1.11-2.69-.54,0-1.09,0-1.63,0ZM98.11,107.54c0,.55,0,1.09,0,1.64.98-.08,1.96-.44,2.68-1.12-.37-.39-.76-.76-1.12-1.15-.46.33-1,.57-1.56.62ZM94.69,108.1c.74.65,1.7,1.02,2.68,1.09,0-.55,0-1.11,0-1.66-.56-.04-1.08-.31-1.55-.6-.36.4-.79.74-1.12,1.17Z"/>
  </g>
  <rect class="st2" x="70.2" y="80.17" width="52.59" height="49.99"/>
</svg>